<svg width="177" height="57" viewBox="0 0 177 57" fill="none" xmlns="http://www.w3.org/2000/svg">
<path d="M11.696 17.376C11.696 18.272 12.144 18.976 13.04 19.488C13.9787 20 15.4293 20.5547 17.392 21.152C19.7387 21.92 21.6587 22.6667 23.152 23.392C24.688 24.1173 26.0107 25.248 27.12 26.784C28.272 28.32 28.848 30.3253 28.848 32.8C28.848 40.736 23.6853 44.704 13.36 44.704C11.6533 44.704 9.56267 44.5547 7.088 44.256C4.656 43.9573 2.43733 43.5733 0.432 43.104C0.517334 42.208 0.688 40.9067 0.944 39.2C1.24267 37.4507 1.52 36.1493 1.776 35.296C3.26933 35.5093 5.50933 35.7653 8.496 36.064C11.5253 36.3627 13.808 36.512 15.344 36.512C16.24 36.512 16.7733 36.448 16.944 36.32C17.2 36.1493 17.392 35.872 17.52 35.488C17.6907 35.0613 17.776 34.6987 17.776 34.4C17.776 33.5467 17.3707 32.9067 16.56 32.48C15.7493 32.0107 14.3627 31.456 12.4 30.816C10.0533 30.0907 8.112 29.344 6.576 28.576C5.04 27.808 3.696 26.6133 2.544 24.992C1.392 23.3707 0.816 21.2373 0.816 18.592C0.816 16.7147 1.24267 14.88 2.096 13.088C2.94933 11.2533 3.824 10.016 4.72 9.376C5.40267 8.90666 6.81067 8.45866 8.944 8.032C11.0773 7.60533 13.0827 7.392 14.96 7.392C19.7387 7.392 23.6427 7.84 26.672 8.736C26.6293 9.58933 26.48 10.7627 26.224 12.256C26.0107 13.7493 25.776 15.1147 25.52 16.352L24.048 16.288C18.5013 15.904 14.96 15.712 13.424 15.712C12.784 15.712 12.4213 15.7333 12.336 15.776C12.1653 15.8613 12.016 16.0533 11.888 16.352C11.76 16.6507 11.696 16.992 11.696 17.376ZM39.2575 10.912C37.8068 10.912 36.5482 10.4213 35.4815 9.44C34.4575 8.45867 33.9455 7.28533 33.9455 5.92C33.9455 4.55466 34.4575 3.38133 35.4815 2.4C36.5482 1.41866 37.8068 0.927998 39.2575 0.927998C40.7082 0.927998 41.9455 1.41866 42.9695 2.4C43.9935 3.38133 44.5055 4.55466 44.5055 5.92C44.5055 7.28533 43.9935 8.45867 42.9695 9.44C41.9455 10.4213 40.7082 10.912 39.2575 10.912ZM33.7535 14.56H44.6975V44H33.7535V14.56ZM65.484 14.048C67.4893 14.048 69.58 14.1973 71.756 14.496C73.932 14.752 76.4707 15.1147 79.372 15.584V41.056C79.372 47.1573 77.3453 51.8933 73.292 55.264C72.78 55.6907 71.628 56.0533 69.836 56.352C68.044 56.6507 66.0173 56.8 63.756 56.8C58.8493 56.8 54.9667 56.16 52.108 54.88C52.0653 53.9413 52.1293 52.704 52.3 51.168C52.5133 49.632 52.7267 48.416 52.94 47.52C56.012 47.9893 59.02 48.224 61.964 48.224C63.4573 48.224 64.716 48.1387 65.74 47.968C66.8067 47.84 67.468 47.6267 67.724 47.328C68.0653 46.9867 68.3213 45.7067 68.492 43.488C68.5347 42.8907 68.556 42.016 68.556 40.864V39.264C67.4893 40.8427 66.124 41.9733 64.46 42.656C62.796 43.3387 61.3027 43.68 59.98 43.68C56.396 43.68 53.6867 42.5067 51.852 40.16C50.0173 37.8133 49.1 34.3787 49.1 29.856C49.1 26.8693 49.5053 24.0747 50.316 21.472C51.1693 18.8267 52.3213 16.992 53.772 15.968C54.7107 15.328 56.2253 14.8587 58.316 14.56C60.4493 14.2187 62.8387 14.048 65.484 14.048ZM64.14 35.68C65.7187 35.68 67.148 35.424 68.428 34.912V21.536C67.9587 21.4507 67.2547 21.3653 66.316 21.28C65.8893 21.2373 65.2493 21.216 64.396 21.216C63.0733 21.216 62.2413 21.344 61.9 21.6C61.4307 21.9413 61.0467 22.9013 60.748 24.48C60.492 26.016 60.364 27.6373 60.364 29.344C60.364 31.6907 60.62 33.3333 61.132 34.272C61.6867 35.2107 62.6893 35.68 64.14 35.68ZM113.042 16.416C113.426 16.8853 113.703 18.0587 113.874 19.936C114.087 21.8133 114.194 24.672 114.194 28.512V44H103.25V28.64V26.016C103.25 24.6507 103.143 23.7973 102.93 23.456C102.588 23.0293 101.799 22.816 100.562 22.816C99.9642 22.816 99.5162 22.8373 99.2175 22.88C98.0228 22.9227 96.7855 23.2 95.5055 23.712V44H84.5615V14.56H93.4575L94.6735 19.488C97.7455 15.776 101.415 13.92 105.682 13.92C107.218 13.92 108.647 14.1333 109.97 14.56C111.335 14.9867 112.359 15.6053 113.042 16.416ZM129.514 7.52H141.034V44H129.514V7.52ZM175.417 16.416C175.801 16.8853 176.078 18.0587 176.249 19.936C176.462 21.8133 176.569 24.672 176.569 28.512V44H165.625V28.64V26.016C165.625 24.6507 165.518 23.7973 165.305 23.456C164.963 23.0293 164.174 22.816 162.937 22.816C162.339 22.816 161.891 22.8373 161.593 22.88C160.398 22.9227 159.161 23.2 157.881 23.712V44H146.937V14.56H155.833L157.049 19.488C160.121 15.776 163.79 13.92 168.057 13.92C169.593 13.92 171.022 14.1333 172.345 14.56C173.71 14.9867 174.734 15.6053 175.417 16.416Z" fill="black"/>
</svg>
